# xmcd CD database file
#
# Track frame offsets:
#	150
#	19617
#	38915
#	58480
#	77945
#	96437
#	116700
#	134590
#	154052
#	170565
#	184875
#	203707
#	220890
#	236690
#
# Disc length: 3322 seconds
#
# Revision: 1
# Processed by: cddbd v1.5.2PL0 Copyright (c) Steve Scherf et al.
# Submitted via: CDex 1.51
#
DISCID=d00cf80e
DTITLE=Cleiton and Camargo - Para Sempre 
DYEAR=2001
DGENRE=Country
TTITLE0=Espelho
TTITLE1=Se é Amor Não Sei
TTITLE2=Agenda Rabiscada
TTITLE3=Na Hora De Amar
TTITLE4=Vê Se Volta Comigo
TTITLE5=Quando Um Grande Amor Se Faz
TTITLE6=Não Posso Ouvir Essa Música
TTITLE7=Sol Na Madrugada
TTITLE8=Amor Por Correspondência 
TTITLE9=O Jogo Das PaixõEs 
TTITLE10=Foi Deus Que Mandou a Chuva
TTITLE11=Fato Consumado
TTITLE12=Louca
TTITLE13=Amor Dividido
EXTD=YEAR: 2001
EXTT0=
EXTT1=
EXTT2=
EXTT3=
EXTT4=
EXTT5=
EXTT6=
EXTT7=
EXTT8=
EXTT9=
EXTT10=
EXTT11=
EXTT12=
EXTT13=
PLAYORDER=
